<?xml version="1.0" encoding="utf-8"?>
<svg data-name="Layer 1" width="684.76331" height="506.49355" viewBox="389.382 0 186.592 504.711" xmlns="http://www.w3.org/2000/svg">
  <path d="M710.52922,344.94078l4.95224,1.06121a28.50966,28.50966,0,0,1,.76987-6.1487,18.46361,18.46361,0,0,0,2.78828,6.90816l28.40245,6.06545,27.2684-28.777c.04166-14.38846-7.94848-25.32289-22.27457-25.32289-.86354,0-1.75825.04159-2.66338.12484A30.299,30.299,0,0,0,715.0861,322.6662C704.932,332.66427,708.615,338.5424,710.52922,344.94078Z" transform="translate(-257.61835 -196.75322)" fill="#2f2e41"/>
  <polygon points="438.947 484.723 428.645 484.723 423.744 444.985 438.949 444.985 438.947 484.723" fill="#ffb6b6"/>
  <path d="M701.17424,701.03875h-7.31052l-1.3049-6.902-3.342,6.902H669.82754a4.35853,4.35853,0,0,1-2.47666-7.94519L682.83456,682.4v-6.97769l16.28613.97206Z" transform="translate(-257.61835 -196.75322)" fill="#2f2e41"/>
  <polygon points="559.646 473.509 550.685 478.593 526.812 446.449 540.037 438.946 559.646 473.509" fill="#ffb6b6"/>
  <path d="M830.92673,685.0023,824.56841,688.61l-4.541-5.35905.49936,7.65228L803.663,700.4717a4.35852,4.35852,0,0,1-6.075-5.68811l8.1897-16.94184-3.44345-6.06884,14.64457-7.19165Z" transform="translate(-257.61835 -196.75322)" fill="#2f2e41"/>
  <path d="M658.484,351.90278a9.12421,9.12421,0,0,1,7.35419,11.90215l15.7652,13.64545-5.95565,11.60294-21.99286-19.58271a9.17367,9.17367,0,0,1,4.82912-17.56783Z" transform="translate(-257.61835 -196.75322)" fill="#ffb6b6"/>
  <path d="M672.11159,394.37186l-10.5443-16.775,11.72412-11.98658,8.32651,10.132,10.31465,4.60188,14.15584,8.625c2.81463-3.313,24.505-28.23054,34.18306-21.056a9.74325,9.74325,0,0,1,4.196,6.983c.6838,6.67049-5.2947,13.45568-5.52165,13.70691l-12.785,17.24649c-.39713,1.08331-4.62782,12.25145-11.22887,15.25572a7.50669,7.50669,0,0,1-6.035.19721c-17.49221-6.81929-29.27829-14.51138-34.53712-22.47609A20.21593,20.21593,0,0,1,672.11159,394.37186Z" transform="translate(-257.61835 -196.75322)" style="fill: rgb(191, 20, 20);"/>
  <path d="M711.12809,429.38423s-30.29263,48.25214-24.80452,53.74024,14.02832,6.92923,14.02832,6.92923l18.90033-24.49117Z" transform="translate(-257.61835 -196.75322)" style="fill: rgb(191, 20, 20);"/>
  <path d="M737.91178,363.48373l-14.27709,9.658a36.82745,36.82745,0,0,0-14.348,42.01287l4.0194,12.217Z" transform="translate(-257.61835 -196.75322)" style="fill: rgb(191, 20, 20);"/>
  <polygon points="505.539 298.445 507.448 305.093 513.961 385.264 546.501 445.908 530.97 457.001 486.597 399.316 469.047 342.038 441.484 468.834 420.777 467.355 435.158 291.554 462.449 242.071 505.539 298.445" fill="#2f2e41"/>
  <path d="M740.33984,365.91232,720.469,382.15178a27.06166,27.06166,0,0,0-8.98333,13.83374v0a27.06206,27.06206,0,0,0-.94974,7.57473l.59212,35.26352L692.9093,487.515s49.393,18.65957,55.9787,2.19524S740.33984,365.91232,740.33984,365.91232Z" transform="translate(-257.61835 -196.75322)" fill="#6c63ff"/>
  <path d="M712.66649,473.24588l-3.29287-13.17146.80418-32.7728c.06391-1.90428,10.2146-31.54226,23.00673-63.0237l11.0052-11.00473,5.93282-3.86082,13.05962,12.05474s-1.66054,32.99672-1.12272,66.77629c.14881,9.34584-1.49405,20.26062-2.19524,28.53816l6.0004,26.66224v14.84085l-.39031.07887c-.3896.07887-6.40306-.10681-31.07769-.10681C713.952,498.25671,727.56268,483.76123,712.66649,473.24588Z" transform="translate(-257.61835 -196.75322)" style="fill: rgb(191, 20, 20);"/>
  <polygon points="500.028 194.141 503.029 212.864 482.721 221.241 500.028 194.141" opacity="0.2"/>
  <circle cx="479.57187" cy="129.26486" r="19.88195" fill="#ffb6b6"/>
  <path d="M770.50425,426.89681l0,0a36.52061,36.52061,0,0,1-43.8385,8.86091l-4.32724-2.14156Z" transform="translate(-257.61835 -196.75322)" opacity="0.2"/>
  <path d="M701.31983,422.32007a9.12421,9.12421,0,0,1,13.98452.42232l20.07437-5.63557,6.40006,11.36386L713.31811,436.031a9.17367,9.17367,0,0,1-11.99828-13.711Z" transform="translate(-257.61835 -196.75322)" fill="#ffb6b6"/>
  <path d="M744.26813,434.3524l-19.8087-.44567L720.91812,417.518l13.04323-1.36455,9.52425-6.07108,14.99811-7.05933c-1.21345-4.1744-10.05282-36.00553,1.26739-40.12767a9.74322,9.74322,0,0,1,8.13927.34684c5.943,3.10538,8.31033,11.83333,8.3949,12.16116L783.6311,395.576c.68512.92839,7.67294,10.61323,6.54216,17.77709a7.50673,7.50673,0,0,1-3.16121,5.1446c-15.33,10.83843-28.24374,16.43439-37.788,16.43344A20.21627,20.21627,0,0,1,744.26813,434.3524Z" transform="translate(-257.61835 -196.75322)" style="fill: rgb(191, 20, 20);"/>
  <path d="M713.34868,312.93858c1.59182,2.07035,7.0746,3.90144,13.5874,5.37877-.01041-.1352-.01041-.27045-.01041-.40571a28.51028,28.51028,0,0,1,.76987-6.1487,18.46349,18.46349,0,0,0,2.78829,6.90816c.104.15609.208.31211.32251.46819,5.58685,1.1028,11.49622,1.95592,16.12594,2.52812-3.18357,11.465-15.38731,20.87009-14.066,27.84067l35.758,7.30344a28.03231,28.03231,0,0,1,.68663-8.63516A18.58683,18.58683,0,0,0,774.492,358.008l3.0379.6242.90513-4.46322c7.84447-18.84132-3.08991-38.13-21.00534-48.1073a21.777,21.777,0,0,0-13.79549-9.25944l-4.46322-.91554A21.88028,21.88028,0,0,0,713.34868,312.93858Z" transform="translate(-257.61835 -196.75322)" fill="#2f2e41"/>
</svg>