<?xml version="1.0" encoding="utf-8"?>
<svg data-name="Layer 1" width="684.76331" height="506.49355" viewBox="88.577 0 339.967 505.899" xmlns="http://www.w3.org/2000/svg">
  <polygon points="140.266 494.709 150.838 494.708 155.867 453.933 140.264 453.934 140.266 494.709" fill="#9e616a"/>
  <path d="M395.18793,688.01066l2.97556-.00012,11.617-4.72438,6.22639,4.72366h.00084a13.2682,13.2682,0,0,1,13.26749,13.26728v.43114l-34.08669.00126Z" fill="#2f2e41" transform="translate(-257.61835 -196.75322)"/>
  <polygon points="189.379 494.709 199.951 494.708 204.98 453.933 189.377 453.934 189.379 494.709" fill="#9e616a"/>
  <path d="M444.30085,688.01066l2.97556-.00012,11.617-4.72438,6.22639,4.72366h.00084a13.2682,13.2682,0,0,1,13.26749,13.26728v.43114l-34.08669.00126Z" fill="#2f2e41" transform="translate(-257.61835 -196.75322)"/>
  <path d="M455.44764,468.31824,372.389,470.485l1.4445,40.44594s-1.4445,10.83373,1.4445,13.72273,4.33349,2.889,2.889,7.94474,6.18746,13.31326,5.26048,14.24024-3.09373,5.98272-3.09373,5.98272l7.22249,41.16819s5.05574,71.50263,6.50024,72.94713,2.889,0,1.44449,3.61124-2.889,2.16675-1.44449,3.61125a53.19561,53.19561,0,0,1,3.61124,4.33349h17.46193s1.31654-7.22249,1.31654-7.94474,1.4445-5.05574,1.4445-5.778-1.27673-1.999-1.27673-1.999a23.76122,23.76122,0,0,1-.89-4.50126c0-1.44449-4.33349-57.05765-4.33349-57.05765l8.667-72.22489,20.94521,70.78039s0,62.1134,1.4445,63.5579,1.4445.72225.72225,3.61124-3.61125,2.16675-1.4445,4.33349,2.889-1.44449,2.16675,2.16675l-.72225,3.61124,21.66746.31s2.889-6.08794,1.4445-8.25468-1.35783-1.5753.40446-5.12115,2.48454-4.26809,1.76229-4.99034-.72225-4.56381-.72225-4.56381l-3.61125-69.10557s-.72224-72.94713-.72224-75.11388a7.20412,7.20412,0,0,1,.6-3.24922v-2.94108L461.22563,493.597Z" fill="#2f2e41" transform="translate(-257.61835 -196.75322)"/>
  <path d="M549.4444,310.79389a8.0652,8.0652,0,0,1-11.60959,4.2615l-36.05395,30.20512-1.9594-14.76429,35.26391-26.99494a8.1089,8.1089,0,0,1,14.359,7.29261Z" style="fill: rgb(238, 178, 187);" transform="translate(-257.61835 -196.75322)"/>
  <circle cx="132.8478" cy="104.11708" r="22.38971" style="fill: rgb(238, 178, 187);"/>
  <path d="M408.61743,278.58776c-2.08444-4.9682-11.01748-7.918-25.15293-7.47373s-16.61088,17.301-16.61088,17.301c-7.7858,7.25682,4.78422,29.91414,6.965,26.79029,2.18079-3.1238,5.84226-.17107,5.84226-.17107l-3.48932-19.62672c3.68483,1.41759,7.6478,2.36941,11.11371.71789l-5.74252-3.07069q7.13905.88837,14.27815,1.77675l-5.88836-4.53c.14274-.04713.28548-.09609.4283-.14415a20.92492,20.92492,0,0,0,7.45992,1.6937c3.002-.02239,6.19233-1.42914,7.4503-4.155a6.13852,6.13852,0,0,0,.53276-2.3761c4.13922,1.34387,6.31262,6.19288,6.31262,6.19288A76.403,76.403,0,0,0,408.61743,278.58776Z" fill="#2f2e41" transform="translate(-257.61835 -196.75322)"/>
  <path d="M408.38817,324.26143c-5,0-8.22.69-16,2-14.36,2.42-5.76,16.06452-5.76,16.06452s.65-.33-1.11,0-7.76,5.52-7.76,5.52l-10.73,9.53c-16.17,12.69-12.55,32.49-12.55,32.49l23.58,23.73-10.33,47.61s4.38995,7.07,2.11993,10.24,20,2.26,20,2.26c15.37,6.85,69.52,1.06,69.52,1.06-.75-1.96-8-17.15-8-17.15,3.15-5.44.15-13.3.15-13.3s-3.13-37.18006-5.13-42.32,5.12-32.99,9.8-32.69,34.91-15.12,34.91-15.12-.76-1.21,9.22-5.29a48.91145,48.91145,0,0,0,15.49-9.77l4.1-8.19c-1.97.76-8.62-11.78-8.62-11.78l-2.9,1.1055-1.68006-.4855s-13.11,3.73-15.79,6.45-3.58,1.96-6,2.57-2.72,2.31-3.48,2.12-2.11,2.11-3.17,1.81-3.33.91-4.84,1.21-12.24,4.84-12.24,4.84c-6.64-3.36-24.64-2-24.64-2s-5.89-3.47-7.56,0a5.68995,5.68995,0,0,1-5.13,3.33l-7.18-3.07C416.26085,338.5591,408.42918,322.68263,408.38817,324.26143Z" style="fill: rgb(191, 20, 20);" transform="translate(-257.61835 -196.75322)"/>
  <path d="M374.10876,510.59463a8.06519,8.06519,0,0,1,1.80006-12.2353L365.7364,458.37089l13.90766,5.32924,7.72924,37.76127a8.1089,8.1089,0,0,1-13.26454,9.13323Z" style="fill: rgb(238, 178, 187);" transform="translate(-257.61835 -196.75322)"/>
  <path d="M355.38817,382.26143l-1.25622,15.9685s-1.56154,17.54331-1.15266,20.7874,1.17031,23.05512,1.17031,23.05512l13.23857,26.189,15-4-.89764-12.28549.89764,11.28549,2-10-5-17,3-6-1.51287-20.14116Z" style="fill: rgb(191, 20, 20);" transform="translate(-257.61835 -196.75322)"/>
  <path d="M628.99905,264.80718c2.47411,10.8697,3.65,23.19285-2.94906,32.92a22.60018,22.60018,0,0,1-11.69787,8.86176,33.19417,33.19417,0,0,1-14.9065.9156c-11.25543-1.55938-21.25864-7.42214-32.32809-9.69833-4.88493-1.00449-10.06918-1.33649-14.77168.59669-3.52347,1.44848-7.23465,4.36064-7.25156,8.51474-.01737,4.2658,3.6876,7.09707,7.37228,8.40863,4.91663,1.75007,10.02624,1.07273,15.12595.85214,5.49244-.23758,11.093.25908,15.65586,3.62276a27.22947,27.22947,0,0,1,8.70142,11.79727c2.29343,5.5661,3.22429,11.55034,4.69076,17.35773a77.07252,77.07252,0,0,0,5.53231,15.12563,78.3522,78.3522,0,0,0,19.14376,24.81466c3.93926,3.39016,8.72569,6.84394,14.10564,7.15467,4.14959.23966,9.19371-1.50406,10.79318-5.707a8.19475,8.19475,0,0,0-3.83658-9.72918c-3.55622-1.79454-7.42916.76542-8.57758,4.279a5.47726,5.47726,0,0,0,.57067,4.93908c1.07829,1.60788-1.51933,3.11129-2.59041,1.51415-2.48685-3.70823-1.187-8.69547,1.85866-11.66586a8.737,8.737,0,0,1,11.499-.857,11.36119,11.36119,0,0,1,4.1531,11.73953c-1.27929,4.6166-5.81562,7.5531-10.34564,8.2806-5.5941.89838-10.97782-1.30019-15.49346-4.47649a69.4528,69.4528,0,0,1-12.26916-11.333,81.43966,81.43966,0,0,1-16.24638-29.049c-3.30206-10.58121-3.54225-24.55935-13.354-31.70534-5.04883-3.67711-11.2352-3.26928-17.15486-2.93176-5.22555.298-10.32313.24379-15.117-2.12187-3.95837-1.95338-7.15208-5.55889-7.21812-10.15242-.06666-4.6372,3.22567-8.36592,7.10487-10.4786,10.24787-5.58119,22.55427-1.08,32.622,2.64874,10.12432,3.74972,21.68375,8.15073,32.4433,4.20478a20.12461,20.12461,0,0,0,11.11766-10.62283c2.60543-5.52533,2.97613-11.79462,2.37425-17.791a77.42736,77.42736,0,0,0-1.64958-9.43093c-.42785-1.87971,2.46384-2.68225,2.89284-.79751Z" fill="#3f3d56" transform="translate(-257.61835 -196.75322)"/>
  <path d="M610.61062,234.31506a100.84349,100.84349,0,0,0,13.26,27.84q2.16,3.15,4.54,6.14a32.49279,32.49279,0,0,1,4.45-6.22c6.05-6.65,14.16-11,22.03-15.36,7.87-4.36,15.86-9.04,21.42-16.11a28.39923,28.39923,0,0,0,5.24-10.79c1.26-5.33.78-10.89-2.33-15.34-4.52-6.47-13.53-8.75-21.19-6.88-7.67,1.87-14.09,7.2-19.06994,13.32,1.62994-7.52-6.3-14.78-13.97-14.12-7.67.67-13.82,7.37-15.86,14.79C607.08065,218.99505,608.41061,226.93506,610.61062,234.31506Z" style="fill: rgb(255, 99, 99);" transform="translate(-257.61835 -196.75322)"/>
  <g opacity="0.2">
    <path d="M623.87063,262.155q2.16,3.15,4.54,6.14a32.49279,32.49279,0,0,1,4.45-6.22c6.05-6.65,14.16-11,22.03-15.36,7.87-4.36,15.86-9.04,21.42-16.11a28.39923,28.39923,0,0,0,5.24-10.79,75.76561,75.76561,0,0,0-45.9,24.35A73.70884,73.70884,0,0,0,623.87063,262.155Z" transform="translate(-257.61835 -196.75322)"/>
  </g>
</svg>